<?xml version="1.0" encoding="utf-8"?>
<!-- Generator: Adobe Illustrator 24.1.2, SVG Export Plug-In . SVG Version: 6.00 Build 0)  -->
<svg version="1.1" id="Warstwa_3" xmlns="http://www.w3.org/2000/svg" xmlns:xlink="http://www.w3.org/1999/xlink" x="0px" y="0px"
	 viewBox="0 0 430 430" style="enable-background:new 0 0 430 430;" xml:space="preserve">
<g>
	<path class="st1" d="M300.24,318.54H129.78c-3.31,0-6-2.69-6-6s2.69-6,6-6h170.46c3.31,0,6,2.69,6,6S303.56,318.54,300.24,318.54z"
		/>
	<path class="st1" d="M300.24,286.86H129.78c-3.31,0-6-2.69-6-6s2.69-6,6-6h170.46c3.31,0,6,2.69,6,6S303.56,286.86,300.24,286.86z"
		/>
	<path class="st1" d="M215,132.63c-33.08,0-60-24.37-60-54.33c0-0.32,0-0.66,0.02-0.98c0.16-3.31,2.98-5.87,6.28-5.71
		c3.31,0.16,5.87,2.97,5.71,6.28c-0.01,0.13,0,0.28,0,0.41c0,23.34,21.53,42.33,48,42.33s48-18.99,48-42.33c0-0.13,0-0.27,0-0.4
		c-0.16-3.31,2.39-6.13,5.7-6.29c3.3-0.16,6.13,2.39,6.29,5.7c0.02,0.33,0.02,0.67,0.02,0.99C275,108.26,248.08,132.63,215,132.63z"
		/>
	<path class="st1" d="M215,161.1c-48.98,0-89.25-34.52-91.68-78.6c-0.18-3.31,2.35-6.14,5.66-6.32c3.32-0.17,6.14,2.35,6.32,5.66
		c2.08,37.72,37.09,67.26,79.7,67.26c42.61,0,77.63-29.54,79.71-67.26c0.18-3.31,3.02-5.84,6.32-5.66c3.31,0.18,5.84,3.01,5.66,6.32
		C304.25,126.57,263.98,161.1,215,161.1z"/>
	<path class="st0" d="M129.7,360.72H72.85c-3.31,0-6-2.69-6-6V158.15c0-43.27,32.2-79.65,74.9-84.62c24.17-2.82,48.74-4.25,73-4.25
		c0.08,0,0.16,0,0.25,0c3.31,0,6,2.69,6,6s-2.69,6-6,6c-0.1,0-0.17,0-0.25,0c-23.81,0-47.9,1.4-71.61,4.17
		c-36.65,4.27-64.29,35.53-64.29,72.7v190.56h44.85V163.5c0-3.31,2.69-6,6-6s6,2.69,6,6v191.22
		C135.7,358.03,133.01,360.72,129.7,360.72z"/>
	<path class="st0" d="M357.15,360.72H300.3c-3.31,0-6-2.69-6-6V163.5c0-3.31,2.69-6,6-6s6,2.69,6,6v185.22h44.85V158.15
		c0-37.18-27.64-68.43-64.29-72.7c-23.72-2.76-47.81-4.17-71.61-4.17c-0.08,0-0.18,0.03-0.25,0c-3.31,0-6-2.68-6-6s2.68-6,6-6
		c0.08,0,0.17,0,0.25,0c24.27,0,48.83,1.43,73,4.25c42.7,4.98,74.9,41.36,74.9,84.62v196.56
		C363.15,358.03,360.46,360.72,357.15,360.72z"/>
</g>
</svg>
