<?xml version="1.0" encoding="iso-8859-1"?>
<!-- Generator: Adobe Illustrator 21.0.0, SVG Export Plug-In . SVG Version: 6.00 Build 0)  -->
<svg version="1.1" id="cloths-pants-cap-sunglasses"
	 xmlns="http://www.w3.org/2000/svg" xmlns:xlink="http://www.w3.org/1999/xlink" x="0px" y="0px" viewBox="0 0 65 64"
	 style="enable-background:new 0 0 65 64;" xml:space="preserve">
<path d="M64,43c0-0.553-0.447-1-1-1H43c-0.553,0-1,0.447-1,1l0.002,2.941l-1,17c-0.017,0.274,0.081,0.544,0.271,0.744
	C41.461,63.887,41.725,64,42,64h22c0.275,0,0.539-0.113,0.728-0.314c0.189-0.2,0.287-0.47,0.271-0.744L64,46V43z M54,62v-6h2v-2h-6
	v2h2v6h-8.939L44,46v-2h18.001l0.001,2.059L62.939,62H54z"/>
<path d="M46,33V23c0-0.553-0.447-1-1-1H30.5c-0.553,0-1,0.447-1,1c0,3.309-2.691,6-6,6s-6-2.691-6-6c0-0.553-0.447-1-1-1H1
	c-0.553,0-1,0.447-1,1v10c0,0.553,0.447,1,1,1h8v29c0,0.553,0.447,1,1,1h26c0.553,0,1-0.447,1-1V34h8C45.553,34,46,33.553,46,33z
	 M44,32h-8c-0.553,0-1,0.447-1,1v29H11V33c0-0.553-0.447-1-1-1H2v-8h13.562c0.493,3.94,3.865,7,7.938,7s7.444-3.06,7.938-7H44V32z"
	/>
<path d="M35,12h8c0.089,0,0.168-0.029,0.25-0.05C43.332,11.971,43.411,12,43.5,12h20c0.553,0,1-0.447,1-1c0-6.065-4.935-11-11-11
	c-5.728,0-10.442,4.402-10.949,10H35c-0.553,0-1,0.447-1,1S34.447,12,35,12z M53.5,2c4.625,0,8.445,3.506,8.944,8H44.556
	C45.055,5.506,48.875,2,53.5,2z"/>
<path d="M5,16c1.859,0,3.411-1.279,3.858-3H10v-1v-1H8.858C8.411,9.279,6.859,8,5,8C4.268,8,3.591,8.212,3,8.556V3
	c0-0.552,0.448-1,1-1s1,0.448,1,1v1c0,0.553,0.447,1,1,1s1-0.447,1-1V3c0-1.654-1.346-3-3-3S1,1.346,1,3v9C1,14.206,2.794,16,5,16z
	 M5,10c1.103,0,2,0.897,2,2s-0.897,2-2,2s-2-0.897-2-2S3.897,10,5,10z"/>
<path d="M14,16c2.206,0,4-1.794,4-4V3c0-0.552,0.448-1,1-1s1,0.448,1,1v1c0,0.553,0.447,1,1,1s1-0.447,1-1V3c0-1.654-1.346-3-3-3
	s-3,1.346-3,3v5.556C15.409,8.212,14.732,8,14,8c-2.206,0-4,1.794-4,4S11.794,16,14,16z M14,10c1.103,0,2,0.897,2,2s-0.897,2-2,2
	s-2-0.897-2-2S12.897,10,14,10z"/>
<rect x="31" y="46" width="2" height="2"/>
<rect x="27" y="46" width="2" height="2"/>
<rect x="31" y="50" width="2" height="2"/>
<rect x="27" y="50" width="2" height="2"/>
<rect x="23" y="50" width="2" height="2"/>
<rect x="31" y="54" width="2" height="2"/>
<rect x="27" y="54" width="2" height="2"/>
<rect x="23" y="54" width="2" height="2"/>
<rect x="31" y="58" width="2" height="2"/>
<rect x="27" y="58" width="2" height="2"/>
<rect x="23" y="58" width="2" height="2"/>
<rect x="2" y="49" width="2" height="2"/>
<rect x="2" y="53" width="2" height="2"/>
<rect x="2" y="57" width="2" height="2"/>
<rect x="19" y="58" width="2" height="2"/>
<rect x="58" y="15" width="2" height="4"/>
<rect x="58" y="23" width="2" height="4"/>
<rect x="61" y="20" width="4" height="2"/>
<rect x="53" y="20" width="4" height="2"/>
<rect x="54" y="28" width="2" height="4"/>
<rect x="54" y="36" width="2" height="4"/>
<rect x="57" y="33" width="4" height="2"/>
<rect x="49" y="33" width="4" height="2"/>
<path d="M20.583,14.5c0,0.477,0.337,0.887,0.804,0.98c2.641,0.528,4.688,2.575,5.216,5.216c0.094,0.467,0.504,0.804,0.98,0.804
	s0.887-0.337,0.98-0.804c0.528-2.641,2.575-4.688,5.216-5.216c0.467-0.094,0.804-0.504,0.804-0.98s-0.337-0.887-0.804-0.98
	c-2.641-0.528-4.688-2.575-5.216-5.216C28.47,7.837,28.06,7.5,27.583,7.5s-0.887,0.337-0.98,0.804
	c-0.528,2.641-2.575,4.688-5.216,5.216C20.92,13.613,20.583,14.023,20.583,14.5z M27.583,11.313c0.761,1.326,1.86,2.426,3.187,3.187
	c-1.326,0.761-2.426,1.86-3.187,3.187c-0.761-1.326-1.86-2.426-3.187-3.187C25.723,13.739,26.822,12.64,27.583,11.313z"/>
<rect x="58" y="52" width="2" height="2"/>
<rect x="58" y="56" width="2" height="2"/>
</svg>
