<?xml version="1.0" encoding="utf-8"?>
<!-- Generator: Adobe Illustrator 24.1.2, SVG Export Plug-In . SVG Version: 6.00 Build 0)  -->
<svg version="1.1" id="Warstwa_1" xmlns="http://www.w3.org/2000/svg" xmlns:xlink="http://www.w3.org/1999/xlink" x="0px" y="0px"
	 viewBox="0 0 430 430" style="enable-background:new 0 0 430 430;" xml:space="preserve">
<g>
	<g>
		<path class="st0" d="M348.43,102.25H81.57c-3.31,0-6,2.69-6,6v153.71c0,3.31,2.69,6,6,6h266.87c3.31,0,6-2.69,6-6V108.25
			C354.43,104.94,351.75,102.25,348.43,102.25z M342.43,255.97H87.57V114.25h254.87V255.97z"/>
		<path class="st0" d="M363.12,75.57H66.88c-9.93,0-18,8.07-18,18v205.52c0,9.93,8.07,18,18,18H187.9
			c-4.59,10.88-11.44,23.11-17.25,25.97c-2.5,1.23-3.82,4.03-3.19,6.74c0.63,2.72,3.05,4.64,5.84,4.64h83.39
			c2.79,0,5.21-1.92,5.84-4.64c0.63-2.72-0.69-5.51-3.19-6.74c-6.05-2.98-12.81-15.41-17.25-25.97h121.02c9.93,0,18-8.07,18-18
			V93.57C381.12,83.64,373.04,75.57,363.12,75.57z M242.1,342.43H187.9c6.1-8.62,10.66-19.43,12.92-25.35h28.36
			C231.44,323.01,236,333.81,242.1,342.43z M369.12,299.08c0,3.31-2.69,6-6,6H196.76c-0.01,0-0.02,0-0.02,0H66.88
			c-3.31,0-6-2.69-6-6V93.57c0-3.31,2.69-6,6-6h296.24c3.31,0,6,2.69,6,6V299.08z"/>
	</g>
	<g>
		<path class="st1" d="M215.07,277.58h-0.15c-4.97,0-9,4.03-9,9s4.03,9,9,9h0.15c4.97,0,9-4.03,9-9S220.04,277.58,215.07,277.58z"/>
		<path class="st1" d="M270.93,169.66c-1.12-1.6-2.96-2.55-4.91-2.55h-9.44l-20.54-31.29c-1.82-2.77-5.54-3.54-8.31-1.72
			c-2.77,1.82-3.54,5.54-1.72,8.31l16.22,24.71h-54.44l16.22-24.71c1.82-2.77,1.05-6.49-1.72-8.31c-2.77-1.82-6.49-1.05-8.31,1.72
			l-20.54,31.29h-9.44c-1.96,0-3.79,0.95-4.91,2.55c-1.12,1.6-1.4,3.65-0.73,5.49l20.94,58c0.86,2.38,3.12,3.96,5.64,3.96h60.16
			c2.53,0,4.79-1.58,5.64-3.96l20.94-58C272.33,173.31,272.05,171.26,270.93,169.66z M240.87,225.11h-51.74l-8.19-22.69h68.12
			L240.87,225.11z M253.39,190.42h-76.79l-4.08-11.3h4.12c0,0,0,0,0.01,0c0,0,0.01,0,0.01,0h76.67c0,0,0.01,0,0.01,0c0,0,0,0,0.01,0
			h4.12L253.39,190.42z"/>
	</g>
</g>
</svg>
