<?xml version="1.0" encoding="UTF-8" standalone="no"?> <svg width="128" height="128" viewBox="0 0 128 128" fill="none" xmlns="http://www.w3.org/2000/svg">
<path d="M48 18C48 15.7909 49.7909 14 52 14H110C112.209 14 114 15.7909 114 18V86C114 88.2091 112.209 90 110 90H52C49.7909 90 48 88.2091 48 86V18Z" fill="black"/>
<path d="M80 14H82V90H80V14Z" fill="white"/>
<path d="M86 48C86 46.8954 86.8954 46 88 46V46C89.1046 46 90 46.8954 90 48V54C90 55.1046 89.1046 56 88 56V56C86.8954 56 86 55.1046 86 54V48Z" fill="white"/>
<path d="M72 48C72 46.8954 72.8954 46 74 46V46C75.1046 46 76 46.8954 76 48V54C76 55.1046 75.1046 56 74 56V56C72.8954 56 72 55.1046 72 54V48Z" fill="white"/>
<path d="M120.848 55.53C121.11 55.1112 121.027 54.564 120.652 54.2419C120.278 53.9198 119.724 53.9193 119.349 54.2407C117.44 55.8774 114.867 59.529 112.226 64.9362C110.853 67.7488 109.449 71.0615 108.1 74.8568C105.077 71.2241 101.891 69.0162 99.3511 68.0637C98.9104 67.8984 98.4141 68.0628 98.1592 68.4586C97.9044 68.8544 97.9601 69.3743 98.2929 69.7071C99.4146 70.8288 101.104 73.5683 102.665 76.7526C103.52 78.4977 104.309 80.3189 104.924 82H104C101.791 82 100 83.7909 100 86V98C100 100.209 101.791 102 104 102H115C117.209 102 119 100.209 119 98V86C119 83.7909 117.209 82 115 82H113.889C114.546 78.3889 115.441 74.092 116.411 69.9796C117.189 66.6786 118.012 63.5127 118.793 60.9301C119.587 58.3049 120.304 56.4001 120.848 55.53Z" fill="black"/>
<path d="M24 44C15.1634 44 8 51.1634 8 60V112C8 113.105 8.89543 114 10 114H11.4384C12.3562 114 13.1561 113.375 13.3787 112.485L16.5 100H49.5L52.6213 112.485C52.8439 113.375 53.6438 114 54.5616 114H56C57.1046 114 58 113.105 58 112V60C58 51.1634 50.8366 44 42 44H24Z" fill="black"/>
<path fill-rule="evenodd" clip-rule="evenodd" d="M14 71C14 69.8954 14.8954 69 16 69C18.1215 69 19.7251 69.897 20.7353 71.2684C21.6807 72.5519 22 74.0965 22 75.3636V85H44V75.3636C44 74.5176 44.1037 72.9814 44.9388 71.6011C45.8755 70.0528 47.5486 69 50 69C51.1046 69 52 69.8954 52 71C52 72.1046 51.1046 73 50 73C49.373 73 49.0129 73.125 48.8111 73.2346C48.6147 73.3414 48.4748 73.4839 48.3612 73.6716C48.0963 74.1096 48 74.7551 48 75.3636V87C48 88.1046 47.1046 89 46 89H20C18.8954 89 18 88.1046 18 87V75.3636C18 74.6914 17.8193 74.0542 17.5147 73.6407C17.2749 73.3152 16.8785 73 16 73C14.8954 73 14 72.1046 14 71Z" fill="white"/>
</svg>
