<?xml version="1.0" encoding="utf-8"?>
<!-- Generator: Adobe Illustrator 24.1.2, SVG Export Plug-In . SVG Version: 6.00 Build 0)  -->
<svg version="1.1" id="Warstwa_1" xmlns="http://www.w3.org/2000/svg" xmlns:xlink="http://www.w3.org/1999/xlink" x="0px" y="0px"
	 viewBox="0 0 430 430" style="enable-background:new 0 0 430 430;" xml:space="preserve">
<g>
	<g>
		<path class="st0" d="M246.27,62.26H54.25c-3.31,0-6,2.69-6,6v26.37c0,3.31,2.69,6,6,6h5.58v189.19h-5.58c-3.31,0-6,2.69-6,6v26.37
			c0,3.31,2.69,6,6,6h38.61c3.31,0,6-2.69,6-6s-2.69-6-6-6H60.25v-14.37h27.2c3.31,0,6-2.69,6-6s-2.69-6-6-6H71.83V100.63h72.43
			v121.94c0,3.31,2.69,6,6,6s6-2.69,6-6V100.63h72.43v121.94c0,3.31,2.69,6,6,6s6-2.69,6-6V100.63h5.58c3.31,0,6-2.69,6-6V68.26
			C252.27,64.94,249.58,62.26,246.27,62.26z M60.25,74.26h180.02v14.37h-5.5c-0.03,0-0.06,0-0.09,0s-0.06,0-0.09,0H60.25V74.26z"/>
		<path class="st0" d="M127.61,196.75c0-3.31-2.69-6-6-6h-14.89c-3.31,0-6,2.69-6,6s2.69,6,6,6h14.89
			C124.92,202.75,127.61,200.07,127.61,196.75z"/>
		<path class="st0" d="M193.8,190.75h-14.89c-3.31,0-6,2.69-6,6s2.69,6,6,6h14.89c3.31,0,6-2.69,6-6S197.11,190.75,193.8,190.75z"/>
		<path class="st0" d="M160.59,333.78l-34.01,22.99c-2.75,1.86-3.47,5.59-1.61,8.33c1.16,1.72,3.05,2.64,4.98,2.64
			c1.16,0,2.32-0.33,3.35-1.03l34.01-22.99c2.75-1.86,3.47-5.59,1.61-8.33C167.06,332.65,163.33,331.93,160.59,333.78z"/>
		<path class="st0" d="M339.63,356.77l-34.01-22.99c-2.75-1.86-6.48-1.13-8.33,1.61c-1.86,2.75-1.13,6.48,1.61,8.33l34.01,22.99
			c1.03,0.7,2.2,1.03,3.35,1.03c1.93,0,3.82-0.93,4.98-2.64C343.09,362.36,342.37,358.63,339.63,356.77z"/>
		<path class="st0" d="M350.92,269.03l-7.48-14.41c-1.75-3.39-4.73-5.9-8.37-7.06c-3.65-1.16-7.54-0.83-10.95,0.94l-28.43,14.75
			c-7.01,3.64-9.75,12.31-6.11,19.32l11.87,22.88c1.07,2.06,3.16,3.24,5.33,3.24c0.93,0,1.88-0.22,2.76-0.68
			c2.94-1.53,4.09-5.15,2.56-8.09l-11.87-22.88c-0.59-1.14-0.15-2.55,0.99-3.14l28.43-14.75c0.75-0.39,1.45-0.26,1.79-0.15
			c0.34,0.11,0.97,0.4,1.35,1.14l7.49,14.42c1.53,2.94,5.15,4.09,8.09,2.56C351.3,275.59,352.45,271.97,350.92,269.03z"/>
		<path class="st0" d="M172.62,263.25l-28.43-14.75c-7.02-3.64-15.69-0.89-19.33,6.11l-11.58,22.32c-1.53,2.94-0.38,6.56,2.56,8.09
			c2.94,1.53,6.56,0.38,8.09-2.56l11.58-22.32c0.59-1.14,2.01-1.58,3.15-0.99l28.43,14.75c1.14,0.59,1.58,2,0.99,3.14l-11.7,22.55
			c-1.53,2.94-0.38,6.56,2.56,8.09c0.88,0.46,1.83,0.68,2.76,0.68c2.17,0,4.26-1.18,5.33-3.24l11.7-22.55
			C182.38,275.56,179.63,266.9,172.62,263.25z"/>
	</g>
	<g>
		<path class="st1" d="M374.8,263.09c-4.53-5.52-10.75-9.21-17.62-10.58v-2.08c0-18.67-15.19-33.87-33.87-33.87H137.7
			c-18.67,0-33.86,15.19-33.86,33.86v2.09c-6.86,1.37-13.08,5.06-17.62,10.58c-5.83,7.1-8.14,16.33-6.36,25.34l6.39,32.17
			c2.78,14,15.16,24.15,29.42,24.15h229.68c14.27,0,26.64-10.15,29.43-24.15l6.38-32.17C382.95,279.42,380.63,270.19,374.8,263.09z
			 M137.7,228.56h185.61c12.06,0,21.87,9.81,21.87,21.87v6.33l-14.77,36.69c-0.96,2.36-2.76,4.2-5.09,5.19
			c-0.05,0.02-0.11,0.04-0.16,0.06c-1.17,0.47-2.4,0.71-3.67,0.67c-0.65-0.01-1.32-0.1-1.99-0.27c-3.46-0.85-7.42-1.64-11.78-2.34
			c-37.05-5.94-104.29-6.1-146.81-0.35c-7.31,0.99-13.76,2.13-19.11,3.39c-0.05,0.01-0.1,0.03-0.16,0.04
			c-0.09,0.01-0.18,0.03-0.26,0.04c-1.5,0.3-3.06,0.22-4.52-0.24c-0.02-0.01-0.05-0.02-0.08-0.02c-0.01,0-0.01-0.01-0.02-0.01
			c-0.7-0.21-1.38-0.53-2.03-0.93c-0.13-0.08-0.27-0.14-0.4-0.21c-0.02-0.02-0.04-0.03-0.05-0.04c-0.1-0.09-0.2-0.17-0.31-0.26
			c-0.04-0.03-0.07-0.06-0.11-0.09c-1.31-1.02-2.33-2.37-2.95-3.92l-15.06-37.39v-6.35C115.84,238.37,125.65,228.56,137.7,228.56z
			 M369.39,286.1l-6.38,32.16c-1.68,8.4-9.1,14.49-17.66,14.49H115.67c-8.56,0-15.98-6.09-17.65-14.49l-6.39-32.16
			c-1.08-5.47,0.33-11.08,3.86-15.39c2.7-3.29,6.39-5.51,10.46-6.37c0,0,0,0,0,0l13.82,34.3c1.41,3.5,3.72,6.56,6.68,8.87
			c0.03,0.03,0.07,0.06,0.1,0.08c0.04,0.03,0.08,0.07,0.13,0.1c0.02,0.02,0.05,0.03,0.08,0.05c0.24,0.17,0.48,0.33,0.74,0.47
			c0.01,0,0.02,0.01,0.03,0.01c0.03,0.01,0.05,0.03,0.08,0.04c0.29,0.26,0.6,0.5,0.94,0.69c1.49,0.91,3.07,1.62,4.71,2.12
			c0,0,0.01,0,0.01,0c0,0,0,0,0,0c0.03,0.02,0.07,0.02,0.1,0.03c2.02,0.62,4.12,0.94,6.23,0.94c1.32,0,2.65-0.13,3.96-0.38
			c0.28-0.04,0.58-0.1,0.92-0.18c5.04-1.19,11.1-2.26,18.03-3.2c31.26-4.22,76.1-5.19,111.78-2.96c11.78,0.74,22.57,1.83,31.53,3.27
			c4.03,0.65,7.67,1.37,10.82,2.15c1.55,0.37,3.11,0.58,4.6,0.61c2.84,0.06,5.59-0.43,8.22-1.47c0.08-0.02,0.15-0.05,0.22-0.08
			c5.36-2.17,9.68-6.5,11.85-11.88l10.36-25.7l3.18-7.9c4.07,0.86,7.76,3.08,10.46,6.37C369.07,275.02,370.47,280.63,369.39,286.1z"
			/>
		<path class="st1" d="M184.05,263.99c0.32,0.21,0.67,0.4,1.03,0.55c0.36,0.15,0.74,0.26,1.13,0.34c0.38,0.08,0.78,0.12,1.17,0.12
			c1.58,0,3.13-0.64,4.24-1.76c1.12-1.12,1.76-2.66,1.76-4.24c0-0.39-0.04-0.79-0.12-1.17c-0.07-0.39-0.19-0.76-0.34-1.13
			c-0.15-0.36-0.34-0.71-0.55-1.03c-0.22-0.33-0.47-0.64-0.75-0.91c-1.39-1.4-3.47-2.03-5.41-1.64c-0.39,0.07-0.77,0.19-1.13,0.34
			c-0.36,0.15-0.71,0.33-1.03,0.55c-0.33,0.22-0.64,0.47-0.92,0.75c-0.27,0.27-0.52,0.58-0.74,0.91c-0.22,0.32-0.4,0.67-0.55,1.03
			c-0.15,0.37-0.27,0.74-0.34,1.13c-0.08,0.38-0.12,0.78-0.12,1.17c0,1.58,0.64,3.12,1.75,4.24
			C183.41,263.52,183.72,263.77,184.05,263.99z"/>
		<path class="st1" d="M224.97,261.3c0.15,0.36,0.34,0.71,0.55,1.03c0.22,0.33,0.47,0.64,0.75,0.91c0.27,0.28,0.58,0.53,0.91,0.75
			c0.33,0.21,0.67,0.4,1.04,0.55c0.36,0.15,0.74,0.27,1.12,0.34c0.39,0.08,0.78,0.12,1.17,0.12s0.79-0.04,1.17-0.12
			c0.38-0.07,0.76-0.19,1.13-0.34c0.36-0.15,0.71-0.34,1.03-0.55c0.33-0.22,0.64-0.47,0.91-0.75c0.28-0.27,0.53-0.58,0.75-0.91
			c0.22-0.32,0.4-0.67,0.55-1.03c0.15-0.37,0.27-0.74,0.34-1.13c0.08-0.38,0.12-0.78,0.12-1.17c0-0.39-0.04-0.79-0.12-1.17
			c-0.07-0.39-0.19-0.76-0.34-1.13c-0.15-0.36-0.33-0.71-0.55-1.03c-0.22-0.33-0.47-0.64-0.75-0.91c-0.27-0.28-0.58-0.53-0.91-0.75
			c-0.32-0.22-0.67-0.4-1.03-0.55c-0.37-0.15-0.74-0.27-1.13-0.34c-0.77-0.16-1.57-0.16-2.34,0c-0.39,0.07-0.76,0.19-1.12,0.34
			c-0.37,0.15-0.72,0.33-1.04,0.55c-0.33,0.22-0.64,0.47-0.91,0.75c-0.28,0.27-0.53,0.58-0.75,0.91c-0.21,0.32-0.4,0.67-0.55,1.03
			c-0.15,0.37-0.27,0.74-0.34,1.13c-0.08,0.38-0.12,0.78-0.12,1.17c0,0.39,0.04,0.79,0.12,1.17
			C224.7,260.56,224.82,260.93,224.97,261.3z"/>
		<path class="st1" d="M268.1,261.29c0.15,0.37,0.34,0.71,0.55,1.04c0.22,0.33,0.47,0.63,0.75,0.91c1.12,1.12,2.66,1.76,4.24,1.76
			c0.39,0,0.79-0.04,1.17-0.12c0.39-0.07,0.76-0.19,1.13-0.34c0.36-0.15,0.71-0.34,1.03-0.55c0.33-0.22,0.64-0.47,0.91-0.75
			c0.28-0.28,0.53-0.58,0.75-0.91c0.22-0.33,0.4-0.67,0.55-1.04c0.15-0.36,0.27-0.74,0.35-1.12c0.07-0.38,0.11-0.78,0.11-1.17
			c0-0.39-0.04-0.79-0.11-1.17c-0.08-0.39-0.2-0.76-0.35-1.13c-0.15-0.36-0.33-0.71-0.55-1.03c-0.22-0.33-0.47-0.64-0.75-0.91
			c-0.27-0.28-0.58-0.53-0.91-0.75c-0.32-0.22-0.67-0.4-1.03-0.55c-0.37-0.15-0.74-0.27-1.13-0.34c-1.95-0.39-4.02,0.24-5.41,1.64
			c-0.28,0.27-0.53,0.58-0.75,0.91c-0.21,0.32-0.4,0.67-0.55,1.03c-0.15,0.37-0.26,0.74-0.34,1.13c-0.08,0.38-0.12,0.78-0.12,1.17
			c0,0.39,0.04,0.79,0.12,1.17S267.95,260.93,268.1,261.29z"/>
	</g>
</g>
</svg>
