<svg width="14" height="14" viewBox="0 0 14 14" fill="none" xmlns="http://www.w3.org/2000/svg">
<path d="M13.8638 5.62905H13.3V5.6H7V8.4H10.956C10.3789 10.0299 8.82805 11.2 7 11.2C4.68055 11.2 2.8 9.31945 2.8 7C2.8 4.68055 4.68055 2.8 7 2.8C8.07065 2.8 9.0447 3.2039 9.78635 3.86365L11.7663 1.8837C10.5161 0.71855 8.8438 0 7 0C3.13425 0 0 3.13425 0 7C0 10.8657 3.13425 14 7 14C10.8657 14 14 10.8657 14 7C14 6.53065 13.9517 6.0725 13.8638 5.62905Z" fill="#FFC107"/>
<path d="M0.807153 3.74185L3.107 5.4285C3.7293 3.8878 5.2364 2.8 7.00005 2.8C8.0707 2.8 9.04475 3.2039 9.7864 3.86365L11.7663 1.8837C10.5161 0.71855 8.84385 0 7.00005 0C4.31135 0 1.97965 1.51795 0.807153 3.74185Z" fill="#FF3D00"/>
<path d="M6.99994 14C8.80804 14 10.4509 13.3081 11.6931 12.1828L9.52659 10.3495C8.80018 10.902 7.91255 11.2008 6.99994 11.2C5.17924 11.2 3.63329 10.0391 3.05089 8.41895L0.768188 10.1777C1.92669 12.4446 4.27939 14 6.99994 14Z" fill="#4CAF50"/>
<path d="M13.8638 5.62915H13.3V5.6001H7V8.4001H10.956C10.68 9.17584 10.1827 9.85371 9.5256 10.3499L9.52665 10.3492L11.6931 12.1825C11.5398 12.3218 14 10.5001 14 7.0001C14 6.53075 13.9517 6.0726 13.8638 5.62915Z" fill="#1976D2"/>
</svg>
