<svg width="14" height="11" viewBox="0 0 14 11" fill="none" xmlns="http://www.w3.org/2000/svg">
<path d="M12.6 0H1.4C0.63 0 0.00699999 0.6 0.00699999 1.33333L0 9.33333C0 10.0667 0.63 10.6667 1.4 10.6667H12.6C13.37 10.6667 14 10.0667 14 9.33333V1.33333C14 0.6 13.37 0 12.6 0ZM12.32 2.83333L7.371 5.78C7.147 5.91333 6.853 5.91333 6.629 5.78L1.68 2.83333C1.505 2.72667 1.4 2.54667 1.4 2.35333C1.4 1.90667 1.911 1.64 2.31 1.87333L7 4.66667L11.69 1.87333C12.089 1.64 12.6 1.90667 12.6 2.35333C12.6 2.54667 12.495 2.72667 12.32 2.83333Z" fill="#383838"/>
</svg>
