<?xml version="1.0" encoding="utf-8"?>
<!-- Generator: Adobe Illustrator 25.0.1, SVG Export Plug-In . SVG Version: 6.00 Build 0)  -->
<svg version="1.1" id="Layer_1" xmlns="http://www.w3.org/2000/svg" xmlns:xlink="http://www.w3.org/1999/xlink" x="0px" y="0px"
	 viewBox="0 0 430 430" style="enable-background:new 0 0 430 430;" xml:space="preserve">
<path class="st0" d="M189.8,195.8h-126c-3.3,0-6-2.7-6-6v-126c0-3.3,2.7-6,6-6h126c3.3,0,6,2.7,6,6v126
	C195.8,193.1,193.1,195.8,189.8,195.8z M69.8,183.8h114v-114h-114V183.8z"/>
<path class="st0" d="M366.2,195.8h-126c-3.3,0-6-2.7-6-6v-126c0-3.3,2.7-6,6-6h126c3.3,0,6,2.7,6,6v126
	C372.2,193.1,369.5,195.8,366.2,195.8z M246.2,183.8h114v-114h-114V183.8z"/>
<path class="st0" d="M189.8,372.2h-126c-3.3,0-6-2.7-6-6v-126c0-3.3,2.7-6,6-6h126c3.3,0,6,2.7,6,6v126
	C195.8,369.5,193.1,372.2,189.8,372.2z M69.8,360.2h114v-114h-114V360.2z"/>
<g>
	<path class="st1" d="M303.2,372.2c-3.3,0-6-2.7-6-6v-126c0-3.3,2.7-6,6-6s6,2.7,6,6v126C309.2,369.5,306.5,372.2,303.2,372.2z"/>
	<path class="st1" d="M366.2,309.2h-126c-3.3,0-6-2.7-6-6s2.7-6,6-6h126c3.3,0,6,2.7,6,6S369.5,309.2,366.2,309.2z"/>
</g>
</svg>
