<?xml version="1.0" encoding="UTF-8" standalone="no"?> <svg width="64" height="64" viewBox="0 0 64 64" fill="none" xmlns="http://www.w3.org/2000/svg">
<path d="M55.55 2H25C24.4696 2 23.9609 2.21071 23.5858 2.58579C23.2107 2.96086 23 3.46957 23 4C23 4.53043 23.2107 5.03914 23.5858 5.41421C23.9609 5.78929 24.4696 6 25 6H55.55C56.1998 6 56.8229 6.25812 57.2824 6.71759C57.7419 7.17705 58 7.80022 58 8.45V39C58 39.5304 58.2107 40.0391 58.5858 40.4142C58.9609 40.7893 59.4696 41 60 41C60.5304 41 61.0391 40.7893 61.4142 40.4142C61.7893 40.0391 62 39.5304 62 39V8.45C62 6.73935 61.3204 5.09877 60.1108 3.88916C58.9012 2.67955 57.2606 2 55.55 2V2Z" fill="black"/>
<path d="M47.55 10H8.45C6.73935 10 5.09877 10.6796 3.88916 11.8892C2.67955 13.0988 2 14.7394 2 16.45V55.55C2 57.2606 2.67955 58.9012 3.88916 60.1108C5.09877 61.3204 6.73935 62 8.45 62H47.55C48.397 62 49.2358 61.8332 50.0183 61.509C50.8009 61.1849 51.5119 60.7098 52.1108 60.1108C52.7098 59.5119 53.1849 58.8009 53.509 58.0183C53.8332 57.2358 54 56.397 54 55.55V16.45C54 15.603 53.8332 14.7642 53.509 13.9817C53.1849 13.1991 52.7098 12.4881 52.1108 11.8892C51.5119 11.2902 50.8009 10.8151 50.0183 10.491C49.2358 10.1668 48.397 10 47.55 10V10ZM6 16.45C6 15.8002 6.25812 15.1771 6.71759 14.7176C7.17705 14.2581 7.80022 14 8.45 14H47.55C48.1998 14 48.8229 14.2581 49.2824 14.7176C49.7419 15.1771 50 15.8002 50 16.45V20.55H6V16.45Z" fill="black"/>
</svg>
