<?xml version="1.0" encoding="utf-8"?>
<!-- Generator: Adobe Illustrator 26.3.1, SVG Export Plug-In . SVG Version: 6.00 Build 0)  -->
<svg version="1.1" id="Warstwa_1" xmlns="http://www.w3.org/2000/svg" xmlns:xlink="http://www.w3.org/1999/xlink" x="0px" y="0px"
	 viewBox="0 0 500 500" style="enable-background:new 0 0 500 500;" xml:space="preserve">
<g>
	<path class="st0" d="M178.4,286.55c-0.2,0-0.39-0.01-0.59-0.03c-3.3-0.32-5.71-3.26-5.39-6.56c1.83-18.68-13.48-27.8-31.21-38.37
		c-18.77-11.19-40.05-23.87-40.05-50.69c0-3.31,2.69-6,6-6s6,2.69,6,6c0,20.01,16.61,29.91,34.19,40.38
		c18.55,11.06,39.58,23.59,37.01,49.85C184.06,284.23,181.45,286.55,178.4,286.55z"/>
	<path class="st0" d="M300.25,305.51c-2.74,0-5.21-1.88-5.84-4.66c-0.74-3.23,1.28-6.45,4.51-7.19c0.14-0.03,14.31-3.32,29.93-10.06
		c19.87-8.57,33.13-18.77,38.34-29.49c3.62-7.45,3.42-15.22-0.6-23.74c-1.42-3-0.13-6.57,2.86-7.99c2.99-1.42,6.57-0.13,7.99,2.86
		c5.6,11.86,5.78,23.34,0.54,34.12c-15.42,31.73-73.9,45.42-76.38,45.99C301.14,305.46,300.69,305.51,300.25,305.51z"/>
	<path class="st1" d="M151,335.79c-4.71,0-9.33-0.15-13.8-0.49c-29.38-2.24-46.43-12.74-50.67-31.2
		c-10.65-46.32,13.95-112.51,15-115.31c0.68-1.81,2.19-3.17,4.05-3.68c1.86-0.5,3.85-0.08,5.35,1.13
		c18.09,14.69,35.18,21.28,50.77,19.59c17.08-1.86,29.55-13.42,37-22.78c8.36-10.51,22.6-13.82,34.64-8.05l58.21,27.87
		c25.91,12.41,54.79,18.97,83.52,18.97h0.69c22.25,0,40.36,18.1,40.36,40.36v14.71c0,0.83-0.17,1.64-0.5,2.4
		c-12.3,28.15-34.96,45.52-67.37,51.63c-27,5.09-55.92,1.79-79.16-0.87c-11.14-1.27-20.75-2.38-27.83-2.26
		c-7.22,0.11-17.95,1.45-30.37,3.01C192.77,333.07,171.06,335.79,151,335.79z M110.13,200.73c-6.04,18.56-19.72,66.65-11.89,100.68
		c7.02,30.52,69.69,22.68,111.17,17.49c12.77-1.6,23.8-2.98,31.67-3.1c7.82-0.12,17.82,1.02,29.38,2.34
		c22.43,2.56,50.35,5.75,75.58,1c28.23-5.32,47.25-19.56,58.1-43.51v-13.44c0-15.64-12.72-28.36-28.36-28.36h-0.69
		c-30.51,0-61.18-6.96-88.7-20.14l-58.21-27.87c-6.96-3.33-15.21-1.4-20.06,4.7c-8.87,11.15-23.9,24.94-45.09,27.24
		C146.18,219.59,128.42,213.87,110.13,200.73z"/>
	<path class="st1" d="M319.03,305.95c-30.53,0-70.19-4.02-121.39-15.28c-64.75-14.23-97.78-14.21-106.2-12.2
		c-3.21,0.84-6.45-1.09-7.29-4.29c-0.84-3.21,1.11-6.49,4.32-7.33c1.06-0.27,26.84-6.55,111.75,12.11
		c48.19,10.59,116.16,21.08,166.26,10.86c29.63-6.04,38.92-16.62,39.01-16.73c2.07-2.59,5.81-2.98,8.4-0.91
		c2.59,2.07,2.98,5.88,0.92,8.47C413.67,282.06,393.42,305.95,319.03,305.95z"/>
	<path class="st1" d="M290.23,239.73c-1.99,0-3.94-0.99-5.08-2.8c-1.77-2.8-0.93-6.51,1.88-8.28l24.27-15.3
		c2.8-1.77,6.51-0.93,8.28,1.88c1.77,2.8,0.93,6.51-1.88,8.28l-24.27,15.3C292.43,239.43,291.32,239.73,290.23,239.73z"/>
	<path class="st1" d="M262.94,228.74c-1.99,0-3.94-0.99-5.08-2.8c-1.77-2.8-0.93-6.51,1.88-8.28l24.27-15.3
		c2.81-1.77,6.51-0.93,8.28,1.88c1.77,2.8,0.93,6.51-1.88,8.28l-24.27,15.3C265.14,228.44,264.03,228.74,262.94,228.74z"/>
	<path class="st1" d="M236.63,216.14c-1.99,0-3.94-0.99-5.08-2.8c-1.77-2.8-0.93-6.51,1.88-8.28l24.27-15.3
		c2.8-1.77,6.51-0.93,8.28,1.88c1.77,2.8,0.93,6.51-1.88,8.28l-24.27,15.3C238.83,215.84,237.72,216.14,236.63,216.14z"/>
	<path class="st1" d="M171.88,312.27c-9.39,0-19.38-2.05-29.96-4.22c-14.89-3.06-31.76-6.52-49.96-4.65
		c-3.3,0.34-6.24-2.06-6.58-5.35c-0.34-3.3,2.06-6.24,5.35-6.58c20.04-2.06,37.87,1.6,53.61,4.83c9.96,2.05,19.38,3.98,27.54,3.98
		c3.31,0,6,2.69,6,6S175.19,312.27,171.88,312.27z"/>
</g>
</svg>
