<?xml version="1.0" encoding="UTF-8" standalone="no"?> <svg xmlns="http://www.w3.org/2000/svg" viewBox="0 0 64 64"><g id="Layer_13" data-name="Layer 13"><path d="M59.45,34.93c-4.28,2.91-11.52,4.7-21.45,5.32-7.25-1.86-13-2.88-16.71-2.76h0c-4.45-.76-9.21-1.55-14.2-2.3a38.3,38.3,0,0,1-2.41,4.15c3.77,3,9.24,4.22,16.27,3.73,4-.48,10.25-.49,18.52,0,10.56-.35,17.27-2.86,19.9-7.44A5.6,5.6,0,0,0,59.45,34.93Z"/><path d="M8.67,28.16a1,1,0,0,0-.07.15c5.8,2.25,10.14,5,12.9,8.19,3.79,0,9.35.87,16.55,2.74,10.07-.64,17.21-2.47,21.25-5.44-.47-1.06-1.89-1.38-3.89-1.56a79.36,79.36,0,0,1-12.27-2.49c-6.1-1.32-10-2.6-11.29-3.51-4.81-3-8.32-3.36-10.4-1.09-.95.73-1.91,1.66-2.94,2.6-3.84,2-6.51-1.14-8.28-3.21C9.69,23.9,8.92,23,8.6,23c0,0,0,0-.11.11A34.12,34.12,0,0,1,8.67,28.16Z"/><path d="M30.59,24.37a9,9,0,0,1-.95-.59c-1.3-1.38-3.51-2.37-6.58-3-2.18.4-2.65,1.37-1.84,3.14C23.34,22.11,26.5,22.24,30.59,24.37Z"/><path d="M19.92,36.25c-2.68-2.69-6.62-5.05-11.73-7a17.81,17.81,0,0,0-.86,5C11.72,34.88,16,35.56,19.92,36.25Z"/></g></svg>